<svg xmlns="http://www.w3.org/2000/svg" width="192" height="192" viewBox="0 0 192 192">
  <rect width="192" height="192" rx="24" fill="#1e3a5f"/>
  <g transform="translate(96,96)" stroke="white" stroke-width="4" stroke-linecap="round" fill="none">
    <!-- Main axes -->
    <line y1="-60" y2="60"/>
    <line x1="-52" y1="-30" x2="52" y2="30"/>
    <line x1="-52" y1="30" x2="52" y2="-30"/>
    <!-- Branch tips -->
    <line x1="0" y1="-60" x2="-12" y2="-48"/>
    <line x1="0" y1="-60" x2="12" y2="-48"/>
    <line x1="0" y1="60" x2="-12" y2="48"/>
    <line x1="0" y1="60" x2="12" y2="48"/>
    <line x1="-52" y1="-30" x2="-40" y2="-38"/>
    <line x1="-52" y1="-30" x2="-44" y2="-18"/>
    <line x1="52" y1="30" x2="40" y2="38"/>
    <line x1="52" y1="30" x2="44" y2="18"/>
    <line x1="-52" y1="30" x2="-44" y2="18"/>
    <line x1="-52" y1="30" x2="-40" y2="38"/>
    <line x1="52" y1="-30" x2="44" y2="-18"/>
    <line x1="52" y1="-30" x2="40" y2="-38"/>
    <!-- Mid-branch details -->
    <line x1="0" y1="-30" x2="-10" y2="-24"/>
    <line x1="0" y1="-30" x2="10" y2="-24"/>
    <line x1="0" y1="30" x2="-10" y2="24"/>
    <line x1="0" y1="30" x2="10" y2="24"/>
  </g>
  <!-- Center dot -->
  <circle cx="96" cy="96" r="5" fill="white"/>
</svg>
