<svg xmlns="http://www.w3.org/2000/svg" width="512" height="512" viewBox="0 0 512 512">
  <rect width="512" height="512" rx="64" fill="#1e3a5f"/>
  <g transform="translate(256,256)" stroke="white" stroke-width="10" stroke-linecap="round" fill="none">
    <!-- Main axes -->
    <line y1="-160" y2="160"/>
    <line x1="-139" y1="-80" x2="139" y2="80"/>
    <line x1="-139" y1="80" x2="139" y2="-80"/>
    <!-- Branch tips -->
    <line x1="0" y1="-160" x2="-32" y2="-128"/>
    <line x1="0" y1="-160" x2="32" y2="-128"/>
    <line x1="0" y1="160" x2="-32" y2="128"/>
    <line x1="0" y1="160" x2="32" y2="128"/>
    <line x1="-139" y1="-80" x2="-107" y2="-100"/>
    <line x1="-139" y1="-80" x2="-117" y2="-48"/>
    <line x1="139" y1="80" x2="107" y2="100"/>
    <line x1="139" y1="80" x2="117" y2="48"/>
    <line x1="-139" y1="80" x2="-117" y2="48"/>
    <line x1="-139" y1="80" x2="-107" y2="100"/>
    <line x1="139" y1="-80" x2="117" y2="-48"/>
    <line x1="139" y1="-80" x2="107" y2="-100"/>
    <!-- Mid-branch details -->
    <line x1="0" y1="-80" x2="-26" y2="-64"/>
    <line x1="0" y1="-80" x2="26" y2="-64"/>
    <line x1="0" y1="80" x2="-26" y2="64"/>
    <line x1="0" y1="80" x2="26" y2="64"/>
  </g>
  <!-- Center dot -->
  <circle cx="256" cy="256" r="13" fill="white"/>
</svg>
